<svg xmlns="http://www.w3.org/2000/svg" width="66.667" height="66.667" viewBox="0 0 50 50" class="noImageIcon"><path d="M2 2.8c0 1.4 44.9 45.6 45.6 44.9.4-.4-.1-1.6-1.1-2.7-1.6-1.8-1.6-2-.2-2 1.5 0 1.7-1.9 1.7-18V7H8.3L6 4.5C3.7 2 2 1.3 2 2.8zm44 19.9v13.7l-6-5.9c-5.9-5.8-6-5.9-8-4-2.1 1.9-2.2 1.8-11.8-7.8L10.5 9H46v13.7zm-5.8 11c6.2 6.1 6.8 7.3 4 7.3-2.3 0-12.6-10.5-11.8-11.9 1.1-1.8 1.7-1.4 7.8 4.6z"></path><path d="M32.4 16.4c-1 2.6.4 4.8 2.8 4.4 3.3-.4 3.3-5.2 0-5.6-1.3-.2-2.5.3-2.8 1.2zM2 24.8V43h18.1c11.7 0 17.8-.3 17.4-1-.4-.6-7.2-1-17.1-1H4v-3.9c0-3.6.6-4.5 6.5-9.7 3.5-3.1 6.2-6.1 5.9-6.6-.3-.4-3.1 1.4-6.2 4.2l-5.7 5.1-.3-10.8C4.1 13.4 3.5 8.1 3 7.6c-.7-.7-1 5.5-1 17.2z"></path><path d="M25.5 33.1c-.4.6-.5 1.3-.2 1.6.7.7 2.7-.6 2.7-1.8 0-1.2-1.7-1.2-2.5.2z"></path></svg>